<?xml version="1.0" standalone="no"?>
<!DOCTYPE svg PUBLIC "-//W3C//DTD SVG 20010904//EN"
 "http://www.w3.org/TR/2001/REC-SVG-20010904/DTD/svg10.dtd">
<svg version="1.0" xmlns="http://www.w3.org/2000/svg"
 width="294.000000pt" height="294.000000pt" viewBox="0 0 294.000000 294.000000"
 preserveAspectRatio="xMidYMid meet">
<metadata>
Created by potrace 1.11, written by Peter Selinger 2001-2013
</metadata>
<g transform="translate(0.000000,294.000000) scale(0.100000,-0.100000)"
fill="#000000" stroke="none">
<path d="M1310 2660 c-11 -11 -20 -26 -20 -34 0 -18 50 -71 51 -54 1 7 5 -25
9 -72 4 -47 10 -95 14 -107 6 -17 3 -23 -8 -23 -9 0 -16 -4 -16 -9 0 -18 35
-17 68 2 36 21 38 36 2 17 -26 -14 -28 -12 -36 28 -5 26 -3 32 10 32 10 0 26
-5 36 -10 16 -8 18 -7 14 4 -3 8 -19 18 -35 21 -27 6 -29 10 -29 54 0 38 5 52
25 69 31 27 32 66 3 86 -31 22 -64 20 -88 -4z"/>
<path d="M1303 2425 c0 -22 2 -30 4 -17 2 12 2 30 0 40 -3 9 -5 -1 -4 -23z"/>
<path d="M1236 2368 c3 -4 16 -8 29 -8 13 0 26 -4 30 -10 3 -5 13 -6 21 -3 25
9 0 25 -45 27 -22 1 -38 -1 -35 -6z"/>
<path d="M1382 2305 c0 -16 2 -22 5 -12 2 9 2 23 0 30 -3 6 -5 -1 -5 -18z"/>
<path d="M1302 2285 c0 -16 2 -22 5 -12 2 9 2 23 0 30 -3 6 -5 -1 -5 -18z"/>
<path d="M1421 2123 c-19 -20 -61 -27 -86 -13 -20 11 -28 10 -50 -4 -14 -9
-25 -26 -25 -39 -1 -15 -17 -33 -54 -59 -117 -81 -206 -222 -242 -383 -16 -74
-18 -265 -3 -337 22 -107 100 -222 173 -257 53 -26 56 -38 56 -195 l0 -111
-87 -45 c-83 -43 -182 -127 -251 -212 -12 -16 -32 -28 -45 -28 -35 0 -123 -48
-153 -83 -31 -36 -69 -116 -60 -125 3 -3 22 -1 41 5 20 6 35 7 35 2 0 -5 46
-9 103 -9 l102 0 22 73 c29 95 71 159 125 190 60 35 87 42 93 24 5 -11 -58
-161 -95 -229 -6 -10 -10 -27 -10 -38 0 -18 7 -20 55 -20 31 0 55 5 55 10 0 6
11 8 26 4 17 -4 29 -2 35 7 7 11 9 10 9 -3 0 -25 52 -24 74 1 30 33 113 62
180 63 63 1 101 -12 161 -57 l30 -22 498 -2 497 -2 0 39 c0 66 -67 143 -160
186 -32 15 -77 48 -109 81 -78 80 -164 142 -256 186 -101 47 -171 66 -310 81
-60 7 -113 16 -116 21 -12 18 -20 157 -10 176 6 10 44 38 86 60 79 44 191 141
225 195 67 110 72 452 7 626 -50 135 -119 198 -258 236 -79 21 -290 26 -308 7z
m-76 -144 c11 -17 -14 -64 -45 -82 -29 -18 -95 -26 -107 -14 -12 13 17 52 60
79 44 29 81 36 92 17z m-169 -171 c11 -18 6 -76 -10 -111 -37 -80 -56 -140
-66 -217 -19 -138 -35 -159 -70 -90 -24 47 -25 95 -5 175 46 177 119 295 151
243z m523 -410 c7 -17 5 -26 -6 -35 -19 -15 -198 -74 -238 -79 -16 -2 -63 -9
-104 -16 -68 -11 -74 -11 -87 7 -14 18 -14 18 -14 -2 0 -17 -7 -23 -32 -26
l-33 -4 37 -1 c43 -2 62 -34 32 -56 -16 -12 -16 -13 3 -18 20 -5 37 -53 26
-71 -6 -10 -63 1 -80 15 -7 6 -13 22 -13 37 0 14 -7 48 -15 75 -8 27 -15 60
-15 74 0 24 1 24 58 19 91 -10 292 31 402 81 58 27 69 27 79 0z m16 -88 c8
-35 0 -50 -25 -50 -11 0 -31 -5 -45 -12 -28 -12 -39 -6 -49 28 -6 18 1 24 41
42 64 27 70 27 78 -8z m-130 -41 c9 -28 0 -34 -67 -52 l-58 -14 0 32 c0 30 3
33 43 42 64 16 75 15 82 -8z m-147 -41 c4 -30 -2 -33 -96 -43 -50 -5 -53 -4
-62 21 -6 15 -9 28 -8 29 5 5 132 23 148 21 8 -1 16 -13 18 -28z m286 -3 c7
-18 -14 -33 -114 -79 -78 -36 -116 -44 -236 -53 l-71 -5 -6 38 c-4 21 -5 40
-2 42 2 2 39 5 82 5 43 1 80 5 83 9 3 3 43 13 90 21 47 9 96 20 110 26 36 14
57 13 64 -4z m-371 -822 c-7 -2 -19 -2 -25 0 -7 3 -2 5 12 5 14 0 19 -2 13 -5z"/>
</g>
</svg>
